<?xml version="1.0" encoding="utf-8"?>
<!-- Generator: Adobe Illustrator 24.0.2, SVG Export Plug-In . SVG Version: 6.00 Build 0)  -->
<svg version="1.1" xmlns="http://www.w3.org/2000/svg" xmlns:xlink="http://www.w3.org/1999/xlink" x="0px" y="0px"
	 viewBox="0 0 800 600" style="enable-background:new 0 0 800 600;" xml:space="preserve">
<style type="text/css">
	.st0{display:none;}
	.st1{display:inline;fill:#0F0F0F;stroke:#000000;stroke-miterlimit:10;}
	.st2{display:inline;fill:#AAA43F;}
	.st3{display:inline;}
	.st4{fill:#FAED26;}
	.st5{fill:#EFF1F1;}
	.st6{display:none;fill:#AAA43F;}
</style>
<g id="Capa_2" class="st0">
	<rect y="7" class="st1" width="800" height="532"/>
</g>
<g id="Capa_3" class="st0">
	<path class="st2" d="M98.4,123.8c-53.6,0-97,43.8-97,97.7c0,54,43.4,97.7,97,97.7s97-43.8,97-97.7
		C195.4,167.5,151.9,123.8,98.4,123.8z M34.7,190.8l87.4-50.5c3.8-2.2,8.7-0.9,10.9,2.9c2.2,3.8,0.9,8.7-2.9,10.9l-87.4,50.5
		c-1.3,0.7-2.6,1.1-4,1.1c-2.8,0-5.5-1.4-6.9-4C29.5,197.9,30.8,193,34.7,190.8z M35.2,246.5c-2.8,0-5.5-1.4-6.9-4
		c-2.2-3.8-0.9-8.7,2.9-10.9l87.4-50.5c3.8-2.2,8.7-0.9,10.9,2.9c2.2,3.8,0.9,8.7-2.9,10.9l-87.4,50.5
		C38,246.2,36.6,246.5,35.2,246.5z M162,252.3l-87.4,50.5c-1.3,0.7-2.6,1.1-4,1.1c-2.8,0-5.5-1.4-6.9-4c-2.2-3.8-0.9-8.7,2.9-10.9
		l87.4-50.5c3.8-2.2,8.7-0.9,10.9,2.9C167.2,245.1,165.9,250,162,252.3z M165.5,211.4L78,261.9c-1.3,0.7-2.6,1.1-4,1.1
		c-2.8,0-5.5-1.4-6.9-4c-2.2-3.8-0.9-8.7,2.9-10.9l87.4-50.5c3.8-2.2,8.7-0.9,10.9,2.9C170.6,204.3,169.3,209.2,165.5,211.4z"/>
</g>
<g id="Capa_4" class="st0">
	<g class="st3">
		<path class="st4" d="M335,199.5v10.3h-15.4v-2.3c0-4.4,3.7-8,8.2-8H335z"/>
		<rect x="319.7" y="214.9" class="st4" width="15.4" height="11.7"/>
		<path class="st4" d="M335,231.5V242h-7.2c-4.5,0-8.1-3.6-8.1-8v-2.5H335z"/>
		<path class="st4" d="M340,218.8h15.8v-11.3c0-4.4-3.7-8-8.1-8H340V218.8z"/>
		<path class="st4" d="M355.9,224v10c0,4.4-3.7,8-8.1,8H340V224H355.9z"/>
		<g>
			<line class="st4" x1="319.7" y1="214.3" x2="319.7" y2="210.4"/>
		</g>
	</g>
	<g class="st3">
		<line class="st4" x1="335" y1="231.5" x2="319.7" y2="231.5"/>
		<line class="st4" x1="335" y1="226.5" x2="319.7" y2="226.5"/>
	</g>
	<g class="st3">
		<line class="st4" x1="340" y1="218.8" x2="340" y2="199.5"/>
	</g>
</g>
<g id="Capa_5">
	<path class="st4" d="M333.7,265.6v25.3h-15v-13.7c0-6.4,5.2-11.6,11.6-11.6H333.7z"/>
	<path class="st4" d="M318.9,297.2h14.8v9.4h-3.5C324.6,306.6,319.9,302.5,318.9,297.2z"/>
	<path class="st4" d="M353.4,275h-14.8v-9.4h3.5C347.6,265.6,352.3,269.7,353.4,275z"/>
	<path class="st4" d="M353.6,281.3V295c0,6.4-5.2,11.6-11.6,11.6h-3.5v-25.3H353.6z"/>
	<g>
		<path class="st5" d="M374.5,299.6c2.2,0,3.7-0.4,4.7-1.1c1-0.7,1.5-1.7,1.5-3c0-0.8-0.2-1.4-0.5-2c-0.3-0.5-0.8-1-1.4-1.5
			c-0.6-0.4-1.4-0.9-2.3-1.2c-0.9-0.4-1.9-0.8-3-1.1c-1.1-0.4-2.2-0.8-3.3-1.3c-1.1-0.5-2-1.1-2.8-1.8c-0.8-0.7-1.5-1.5-1.9-2.5
			c-0.5-1-0.7-2.1-0.7-3.5c0-2.9,1-5.1,3.1-6.7c2.1-1.6,4.9-2.4,8.4-2.4c2.1,0,3.9,0.2,5.5,0.7c1.6,0.4,2.9,0.9,3.8,1.4l-1.9,4.7
			c-1.1-0.6-2.3-1-3.5-1.3c-1.3-0.3-2.6-0.5-4-0.5c-1.6,0-2.9,0.3-3.8,1c-0.9,0.6-1.4,1.5-1.4,2.7c0,0.7,0.1,1.3,0.5,1.8
			c0.3,0.5,0.7,1,1.3,1.3c0.6,0.4,1.2,0.8,1.9,1.1s1.6,0.7,2.4,1c1.6,0.5,2.9,1.1,4.2,1.7c1.2,0.6,2.2,1.2,3.1,2
			c0.8,0.8,1.5,1.7,1.9,2.7c0.4,1.1,0.7,2.3,0.7,3.8c0,2.9-1.1,5.1-3.2,6.7c-2.1,1.6-5.2,2.4-9.2,2.4c-1.4,0-2.6-0.1-3.7-0.3
			c-1.1-0.2-2.1-0.4-3-0.6c-0.9-0.2-1.6-0.5-2.3-0.8c-0.6-0.3-1.1-0.5-1.5-0.7l1.8-4.7c0.9,0.5,2,0.9,3.5,1.4
			C370.7,299.3,372.5,299.6,374.5,299.6z"/>
		<path class="st5" d="M391.9,303.9v-34.6l5.8-0.9v11.8c0.6-0.2,1.4-0.4,2.2-0.5c0.8-0.2,1.7-0.2,2.5-0.2c2,0,3.7,0.3,5,0.8
			c1.3,0.5,2.4,1.3,3.2,2.2c0.8,1,1.4,2.1,1.7,3.5c0.3,1.3,0.5,2.8,0.5,4.5v13.4h-5.8v-12.6c0-1.3-0.1-2.4-0.3-3.3
			c-0.2-0.9-0.5-1.6-0.9-2.2c-0.4-0.6-0.9-1-1.6-1.2c-0.7-0.3-1.5-0.4-2.5-0.4c-0.8,0-1.5,0.1-2.3,0.2c-0.8,0.2-1.4,0.3-1.8,0.4v19
			H391.9z"/>
		<path class="st5" d="M418.2,292c0-2.1,0.3-3.9,1-5.5c0.6-1.6,1.5-2.9,2.6-4c1.1-1.1,2.3-1.8,3.7-2.4c1.4-0.5,2.8-0.8,4.3-0.8
			c3.4,0,6.1,1,8,3.1c1.9,2,2.9,5.1,2.9,9.1c0,0.3,0,0.6,0,1c0,0.4,0,0.7-0.1,1h-16.4c0.2,1.9,0.9,3.4,2.1,4.5
			c1.3,1.1,3.1,1.6,5.4,1.6c1.4,0,2.7-0.1,3.8-0.4c1.2-0.2,2.1-0.5,2.7-0.8l0.8,4.5c-0.3,0.2-0.8,0.3-1.3,0.5
			c-0.6,0.2-1.2,0.3-1.9,0.5c-0.7,0.1-1.5,0.3-2.3,0.3c-0.8,0.1-1.7,0.1-2.5,0.1c-2.2,0-4.1-0.3-5.7-0.9s-2.9-1.5-4-2.6
			c-1-1.1-1.8-2.4-2.3-3.9C418.4,295.5,418.2,293.8,418.2,292z M434.9,289.6c0-0.8-0.1-1.5-0.3-2.2c-0.2-0.7-0.5-1.3-1-1.8
			c-0.4-0.5-1-0.9-1.6-1.2c-0.6-0.3-1.4-0.4-2.2-0.4c-0.9,0-1.7,0.2-2.3,0.5s-1.2,0.7-1.7,1.3c-0.5,0.5-0.8,1.1-1.1,1.8
			c-0.3,0.7-0.4,1.4-0.5,2.1H434.9L434.9,289.6z"/>
		<path class="st5" d="M456.3,304.3c-1.7,0-3.1-0.2-4.3-0.5c-1.1-0.3-2-0.8-2.7-1.4c-0.7-0.6-1.1-1.4-1.4-2.3
			c-0.3-0.9-0.4-2-0.4-3.2v-27.5l5.8-0.9v27.4c0,0.7,0.1,1.2,0.2,1.7c0.1,0.5,0.3,0.8,0.6,1.2c0.3,0.3,0.7,0.6,1.2,0.7
			c0.5,0.2,1.1,0.3,1.9,0.4L456.3,304.3z"/>
		<path class="st5" d="M472.9,268.4c1.3,0,2.5,0.1,3.5,0.3c1,0.2,1.8,0.4,2.3,0.6l-1.1,4.6c-0.5-0.2-1.2-0.4-1.9-0.6
			c-0.7-0.2-1.5-0.2-2.3-0.2c-0.9,0-1.7,0.1-2.3,0.4c-0.6,0.3-1.1,0.6-1.5,1.1c-0.4,0.5-0.6,1-0.8,1.7c-0.2,0.7-0.2,1.4-0.2,2.1v1.6
			h9v4.6h-9v19.3h-5.8v-25.6c0-3.1,0.8-5.5,2.5-7.2C467,269.3,469.5,268.4,472.9,268.4z"/>
	</g>
</g>
<g id="Capa_1" class="st0">
	<g class="st3">
		<g>
			<path class="st5" d="M373.6,235.3c2.2,0,3.9-0.4,4.9-1.1c1-0.8,1.5-1.8,1.5-3.2c0-0.8-0.2-1.5-0.5-2.1c-0.3-0.6-0.8-1.1-1.5-1.6
				c-0.6-0.5-1.4-0.9-2.3-1.3c-0.9-0.4-2-0.8-3.2-1.2c-1.2-0.4-2.3-0.9-3.4-1.4s-2.1-1.1-2.9-1.9c-0.8-0.8-1.5-1.7-2-2.7
				c-0.5-1.1-0.8-2.3-0.8-3.8c0-3.1,1.1-5.5,3.2-7.3c2.1-1.8,5-2.6,8.7-2.6c2.1,0,4,0.2,5.7,0.7c1.7,0.5,3,1,3.9,1.6l-1.9,5
				c-1.1-0.6-2.3-1.1-3.7-1.4c-1.3-0.3-2.7-0.5-4.1-0.5c-1.7,0-3,0.3-3.9,1c-0.9,0.7-1.4,1.7-1.4,2.9c0,0.8,0.2,1.4,0.5,1.9
				s0.8,1,1.3,1.5c0.6,0.4,1.2,0.8,2,1.2c0.8,0.4,1.6,0.7,2.5,1c1.6,0.6,3,1.2,4.3,1.8c1.3,0.6,2.3,1.3,3.2,2.2c0.9,0.8,1.5,1.8,2,3
				s0.7,2.5,0.7,4.1c0,3.1-1.1,5.5-3.3,7.2c-2.2,1.7-5.4,2.5-9.6,2.5c-1.4,0-2.7-0.1-3.9-0.3c-1.2-0.2-2.2-0.4-3.1-0.7
				s-1.7-0.5-2.3-0.8c-0.7-0.3-1.2-0.5-1.6-0.8l1.8-5.1c0.9,0.5,2.1,1,3.6,1.5C369.6,235,371.5,235.3,373.6,235.3z"/>
			<path class="st5" d="M391.7,239.9v-37.3l6-1v12.8c0.7-0.2,1.4-0.4,2.3-0.6c0.9-0.2,1.7-0.2,2.6-0.2c2.1,0,3.8,0.3,5.2,0.9
				c1.4,0.6,2.5,1.4,3.3,2.4c0.8,1,1.4,2.3,1.8,3.7c0.3,1.4,0.5,3.1,0.5,4.8v14.5h-6v-13.6c0-1.4-0.1-2.6-0.3-3.5
				c-0.2-1-0.5-1.8-0.9-2.4c-0.4-0.6-1-1.1-1.7-1.3c-0.7-0.3-1.5-0.4-2.6-0.4c-0.8,0-1.6,0.1-2.4,0.2c-0.8,0.2-1.4,0.3-1.8,0.4v20.5
				H391.7z"/>
			<path class="st5" d="M418.9,227.1c0-2.3,0.3-4.3,1-6c0.7-1.7,1.6-3.1,2.7-4.3c1.1-1.1,2.4-2,3.8-2.6c1.4-0.6,2.9-0.9,4.4-0.9
				c3.6,0,6.3,1.1,8.3,3.3c2,2.2,3,5.5,3,9.9c0,0.3,0,0.7,0,1.1c0,0.4,0,0.8-0.1,1.1h-17c0.2,2.1,0.9,3.7,2.2,4.8s3.2,1.7,5.6,1.7
				c1.4,0,2.8-0.1,4-0.4c1.2-0.3,2.1-0.5,2.8-0.8l0.8,4.9c-0.3,0.2-0.8,0.3-1.4,0.5c-0.6,0.2-1.2,0.3-2,0.5
				c-0.7,0.1-1.5,0.3-2.4,0.4c-0.9,0.1-1.7,0.1-2.6,0.1c-2.3,0-4.2-0.3-5.9-1c-1.7-0.7-3.1-1.6-4.1-2.8c-1.1-1.2-1.9-2.6-2.4-4.2
				C419.2,230.9,418.9,229.1,418.9,227.1z M436.2,224.5c0-0.8-0.1-1.6-0.3-2.3c-0.2-0.7-0.6-1.4-1-1.9c-0.4-0.5-1-1-1.6-1.3
				c-0.6-0.3-1.4-0.5-2.3-0.5c-0.9,0-1.7,0.2-2.4,0.5s-1.3,0.8-1.8,1.4s-0.8,1.2-1.1,1.9c-0.3,0.7-0.4,1.5-0.5,2.2H436.2
				L436.2,224.5z"/>
			<path class="st5" d="M457.5,240.4c-1.8,0-3.2-0.2-4.4-0.6c-1.2-0.4-2.1-0.9-2.8-1.6c-0.7-0.7-1.2-1.5-1.5-2.5
				c-0.3-1-0.4-2.1-0.4-3.4v-29.7l6-1v29.5c0,0.7,0.1,1.3,0.2,1.8s0.3,0.9,0.6,1.3c0.3,0.3,0.7,0.6,1.2,0.8c0.5,0.2,1.2,0.3,1.9,0.4
				L457.5,240.4z"/>
			<path class="st5" d="M473.7,201.7c1.4,0,2.6,0.1,3.6,0.4c1.1,0.2,1.8,0.5,2.4,0.7l-1.1,4.9c-0.6-0.3-1.2-0.5-1.9-0.6
				c-0.7-0.2-1.5-0.2-2.4-0.2c-1,0-1.8,0.1-2.4,0.4c-0.7,0.3-1.2,0.7-1.6,1.2c-0.4,0.5-0.7,1.1-0.8,1.8c-0.2,0.7-0.2,1.5-0.2,2.3
				v1.7h9.4v5h-9.4v20.8h-6v-27.6c0-3.3,0.9-5.9,2.6-7.8C467.5,202.6,470.2,201.7,473.7,201.7z"/>
		</g>
		<path class="st6" d="M338.7,202c-2.8,0-5.5,0.6-7.9,1.7c-6.5,3-11,9.6-11,17.2c0,9.3,6.7,17,15.5,18.6c0.6,0.2,1.3,0.3,2,0.3
			c0.2,0,0.4,0,0.6,0c0.3,0,0.6,0,0.9,0c0,0,0,0,0,0c2.9,0,5.7-0.7,8.1-1.8h0c5.6-2.7,9.7-8,10.6-14.4v0c0.1-0.9,0.2-1.8,0.2-2.7
			C357.6,210.5,349.1,202,338.7,202z M349.7,222.7c0,1.2-0.1,3.2-0.8,5.5c-1.2,3.9-3.5,7.2-6.7,9.6h0c-0.1,0-0.1,0-0.2-0.1
			c1.2-1.4,1.8-3.2,1.6-5.2c-0.4-2.7-2.5-4.9-5.2-5.4c-2-0.4-3.8,0.2-5.2,1.3c-0.3-1.7-0.6-4.7,0.8-7.8c1.9-4.3,4.6-7.8,10.2-7.3
			C346.2,214,349.7,216,349.7,222.7z"/>
	</g>
</g>
</svg>
